<svg xmlns="http://www.w3.org/2000/svg" viewBox="0 0 256 256" role="img" aria-label="Adeel and Brother">
  <defs>
    <linearGradient id="bg" x1="0" y1="0" x2="1" y2="1">
      <stop offset="0%" stop-color="#1e3a5f"/>
      <stop offset="100%" stop-color="#0f172a"/>
    </linearGradient>
  </defs>
  <circle cx="128" cy="128" r="122" fill="url(#bg)" stroke="#f5c84c" stroke-width="8"/>
  <!-- cement bag left -->
  <g transform="translate(48,150)">
    <path d="M8 8h44l8 10v42H0V18z" fill="#e2e8f0" stroke="#94a3b8" stroke-width="2"/>
    <path d="M8 8c6-10 18-12 28-10l6 10H8z" fill="#cbd5e1"/>
    <rect x="14" y="28" width="32" height="16" rx="2" fill="#f5c84c"/>
  </g>
  <!-- sarya right -->
  <g stroke="#f5c84c" stroke-width="5" stroke-linecap="round">
    <line x1="178" y1="152" x2="196" y2="214"/>
    <line x1="192" y1="152" x2="210" y2="214"/>
  </g>
  <g fill="#fbbf24">
    <circle cx="181" cy="164" r="3"/><circle cx="185" cy="178" r="3"/><circle cx="189" cy="192" r="3"/><circle cx="193" cy="206" r="3"/>
    <circle cx="195" cy="164" r="3"/><circle cx="199" cy="178" r="3"/><circle cx="203" cy="192" r="3"/><circle cx="207" cy="206" r="3"/>
  </g>
  <!-- brand name on logo -->
  <text x="128" y="78" text-anchor="middle" font-family="Segoe UI, Arial, sans-serif" font-size="28" font-weight="700" fill="#ffffff">Adeel and</text>
  <text x="128" y="112" text-anchor="middle" font-family="Segoe UI, Arial, sans-serif" font-size="28" font-weight="700" fill="#ffffff">Brother</text>
  <text x="128" y="138" text-anchor="middle" font-family="Segoe UI, Arial, sans-serif" font-size="13" font-weight="600" fill="#f5c84c" letter-spacing="1">SARYA &amp; CEMENT</text>
</svg>
